HIERARCHY
ROOT Hips
{
  OFFSET 10.132 7.272 -244.623
  CHANNELS 6 Xposition Yposition Zposition Zrotation Xrotation Yrotation
  JOINT LeftUpLeg
  {
    OFFSET 8.957 -7.097 4.359
    CHANNELS 6 Xposition Yposition Zposition Zrotation Xrotation Yrotation
    JOINT LeftLeg
    {
      OFFSET 0.000 -47.883 0.000
      CHANNELS 6 Xposition Yposition Zposition Zrotation Xrotation Yrotation
      JOINT LeftFoot
      {
        OFFSET 0.000 -37.430 -0.000
        CHANNELS 6 Xposition Yposition Zposition Zrotation Xrotation Yrotation
        End Site
        {
          OFFSET 0.000 -9.002 5.197
        }
      }
    }
  }
  JOINT RightUpLeg
  {
    OFFSET -8.960 -7.463 3.455
    CHANNELS 6 Xposition Yposition Zposition Zrotation Xrotation Yrotation
    JOINT RightLeg
    {
      OFFSET 0.000 -48.463 0.000
      CHANNELS 6 Xposition Yposition Zposition Zrotation Xrotation Yrotation
      JOINT RightFoot
      {
        OFFSET -0.000 -35.827 -0.000
        CHANNELS 6 Xposition Yposition Zposition Zrotation Xrotation Yrotation
        End Site
        {
          OFFSET 0.000 -9.225 5.326
        }
      }
    }
  }
  JOINT Spine
  {
    OFFSET 0.000 4.865 -4.865
    CHANNELS 6 Xposition Yposition Zposition Zrotation Xrotation Yrotation
    JOINT LeftShoulder
    {
      OFFSET -0.000 29.037 0.000
      CHANNELS 6 Xposition Yposition Zposition Zrotation Xrotation Yrotation
      JOINT LeftArm
      {
        OFFSET 20.388 0.000 -0.000
        CHANNELS 6 Xposition Yposition Zposition Zrotation Xrotation Yrotation
        JOINT LeftForeArm
        {
          OFFSET 24.108 0.000 0.000
          CHANNELS 6 Xposition Yposition Zposition Zrotation Xrotation Yrotation
          JOINT LeftHand
          {
            OFFSET 23.435 0.000 -0.000
            CHANNELS 6 Xposition Yposition Zposition Zrotation Xrotation Yrotation
            JOINT LeftHandThumb1
            {
            OFFSET 4.970 -0.620 3.390
            CHANNELS 6 Xposition Yposition Zposition Zrotation Xrotation Yrotation
              JOINT LeftHandThumb2
              {
              OFFSET 2.150 -0.000 0.000
              CHANNELS 6 Xposition Yposition Zposition Zrotation Xrotation Yrotation
                JOINT LeftHandThumb3
                {
                OFFSET 2.200 -0.000 0.000
                CHANNELS 6 Xposition Yposition Zposition Zrotation Xrotation Yrotation
                  JOINT LeftHandThumb4
                  {
                  OFFSET 1.700 -0.000 0.000
                  CHANNELS 6 Xposition Yposition Zposition Zrotation Xrotation Yrotation
                  }
                }
              }
            }
            JOINT LeftHandIndex1
            {
            OFFSET 8.730 0.680 2.070
            CHANNELS 6 Xposition Yposition Zposition Zrotation Xrotation Yrotation
              JOINT LeftHandIndex2
              {
              OFFSET 2.670 -0.000 0.000
              CHANNELS 6 Xposition Yposition Zposition Zrotation Xrotation Yrotation
                JOINT LeftHandIndex3
                {
                OFFSET 2.130 -0.000 0.000
                CHANNELS 6 Xposition Yposition Zposition Zrotation Xrotation Yrotation
                  JOINT LeftHandIndex4
                  {
                  OFFSET 1.800 -0.000 0.000
                  CHANNELS 6 Xposition Yposition Zposition Zrotation Xrotation Yrotation
                  }
                }
              }
            }
            JOINT LeftHandMiddle1
            {
            OFFSET 9.220 0.670 0.550
            CHANNELS 6 Xposition Yposition Zposition Zrotation Xrotation Yrotation
              JOINT LeftHandMiddle2
              {
              OFFSET 2.660 -0.000 0.000
              CHANNELS 6 Xposition Yposition Zposition Zrotation Xrotation Yrotation
                JOINT LeftHandMiddle3
                {
                OFFSET 2.280 -0.000 0.000
                CHANNELS 6 Xposition Yposition Zposition Zrotation Xrotation Yrotation
                  JOINT LeftHandMiddle4
                  {
                  OFFSET 1.500 -0.000 0.000
                  CHANNELS 6 Xposition Yposition Zposition Zrotation Xrotation Yrotation
                  }
                }
              }
            }
            JOINT LeftHandRing1
            {
            OFFSET 9.250 0.670 -1.130
            CHANNELS 6 Xposition Yposition Zposition Zrotation Xrotation Yrotation
              JOINT LeftHandRing2
              {
              OFFSET 2.470 -0.000 0.000
              CHANNELS 6 Xposition Yposition Zposition Zrotation Xrotation Yrotation
                JOINT LeftHandRing3
                {
                OFFSET 2.210 -0.000 0.000
                CHANNELS 6 Xposition Yposition Zposition Zrotation Xrotation Yrotation
                  JOINT LeftHandRing4
                  {
                  OFFSET 1.800 -0.000 0.000
                  CHANNELS 6 Xposition Yposition Zposition Zrotation Xrotation Yrotation
                  }
                }
              }
            }
            JOINT LeftHandPinky1
            {
            OFFSET 9.350 0.660 -2.720
            CHANNELS 6 Xposition Yposition Zposition Zrotation Xrotation Yrotation
              JOINT LeftHandPinky2
              {
              OFFSET 1.630 -0.000 0.000
              CHANNELS 6 Xposition Yposition Zposition Zrotation Xrotation Yrotation
                JOINT LeftHandPinky3
                {
                OFFSET 1.710 -0.000 0.000
                CHANNELS 6 Xposition Yposition Zposition Zrotation Xrotation Yrotation
                  JOINT LeftHandPinky4
                  {
                  OFFSET 1.800 -0.000 0.000
                  CHANNELS 6 Xposition Yposition Zposition Zrotation Xrotation Yrotation
                  }
                }
              }
            }
          }
        }
      }
    }
    JOINT RightShoulder
    {
      OFFSET -0.000 29.037 0.000
      CHANNELS 6 Xposition Yposition Zposition Zrotation Xrotation Yrotation
      JOINT RightArm
      {
        OFFSET -19.924 0.000 -0.000
        CHANNELS 6 Xposition Yposition Zposition Zrotation Xrotation Yrotation
        JOINT RightForeArm
        {
          OFFSET -24.820 0.000 0.000
          CHANNELS 6 Xposition Yposition Zposition Zrotation Xrotation Yrotation
          JOINT RightHand
          {
            OFFSET -22.584 0.000 -0.000
            CHANNELS 6 Xposition Yposition Zposition Zrotation Xrotation Yrotation
            JOINT RightHandThumb1
            {
            OFFSET -4.970 -0.620 3.390
            CHANNELS 6 Xposition Yposition Zposition Zrotation Xrotation Yrotation
              JOINT RightHandThumb2
              {
              OFFSET -2.150 0.000 0.000
              CHANNELS 6 Xposition Yposition Zposition Zrotation Xrotation Yrotation
                JOINT RightHandThumb3
                {
                OFFSET -2.200 0.000 0.000
                CHANNELS 6 Xposition Yposition Zposition Zrotation Xrotation Yrotation
                  JOINT RightHandThumb4
                  {
                  OFFSET -1.700 0.000 0.000
                  CHANNELS 6 Xposition Yposition Zposition Zrotation Xrotation Yrotation
                  }
                }
              }
            }
            JOINT RightHandIndex1
            {
            OFFSET -8.730 0.680 2.070
            CHANNELS 6 Xposition Yposition Zposition Zrotation Xrotation Yrotation
              JOINT RightHandIndex2
              {
              OFFSET -2.670 0.000 0.000
              CHANNELS 6 Xposition Yposition Zposition Zrotation Xrotation Yrotation
                JOINT RightHandIndex3
                {
                OFFSET -2.130 0.000 0.000
                CHANNELS 6 Xposition Yposition Zposition Zrotation Xrotation Yrotation
                  JOINT RightHandIndex4
                  {
                  OFFSET -1.800 0.000 0.000
                  CHANNELS 6 Xposition Yposition Zposition Zrotation Xrotation Yrotation
                  }
                }
              }
            }
            JOINT RightHandMiddle1
            {
            OFFSET -9.220 0.670 0.550
            CHANNELS 6 Xposition Yposition Zposition Zrotation Xrotation Yrotation
              JOINT RightHandMiddle2
              {
              OFFSET -2.660 0.000 0.000
              CHANNELS 6 Xposition Yposition Zposition Zrotation Xrotation Yrotation
                JOINT RightHandMiddle3
                {
                OFFSET -2.280 0.000 0.000
                CHANNELS 6 Xposition Yposition Zposition Zrotation Xrotation Yrotation
                  JOINT RightHandMiddle4
                  {
                  OFFSET -1.500 0.000 0.000
                  CHANNELS 6 Xposition Yposition Zposition Zrotation Xrotation Yrotation
                  }
                }
              }
            }
            JOINT RightHandRing1
            {
            OFFSET -9.250 0.670 -1.130
            CHANNELS 6 Xposition Yposition Zposition Zrotation Xrotation Yrotation
              JOINT RightHandRing2
              {
              OFFSET -2.470 0.000 0.000
              CHANNELS 6 Xposition Yposition Zposition Zrotation Xrotation Yrotation
                JOINT RightHandRing3
                {
                OFFSET -2.210 0.000 0.000
                CHANNELS 6 Xposition Yposition Zposition Zrotation Xrotation Yrotation
                  JOINT RightHandRing4
                  {
                  OFFSET -1.800 0.000 0.000
                  CHANNELS 6 Xposition Yposition Zposition Zrotation Xrotation Yrotation
                  }
                }
              }
            }
            JOINT RightHandPinky1
            {
            OFFSET -9.350 0.660 -2.720
            CHANNELS 6 Xposition Yposition Zposition Zrotation Xrotation Yrotation
              JOINT RightHandPinky2
              {
              OFFSET -1.630 0.000 0.000
              CHANNELS 6 Xposition Yposition Zposition Zrotation Xrotation Yrotation
                JOINT RightHandPinky3
                {
                OFFSET -1.710 0.000 0.000
                CHANNELS 6 Xposition Yposition Zposition Zrotation Xrotation Yrotation
                  JOINT RightHandPinky4
                  {
                  OFFSET -1.800 0.000 0.000
                  CHANNELS 6 Xposition Yposition Zposition Zrotation Xrotation Yrotation
                  }
                }
              }
            }
          }
        }
      }
    }
    JOINT Neck
    {
      OFFSET -0.000 29.037 0.000
      CHANNELS 6 Xposition Yposition Zposition Zrotation Xrotation Yrotation
      JOINT Head
      {
        OFFSET -0.000 23.304 -0.000
        CHANNELS 6 Xposition Yposition Zposition Zrotation Xrotation Yrotation
        End Site
        {
          OFFSET -0.000 0.093 -0.000
        }
      }
    }
  }
}
MOTION
Frames:	5
Frame Time:	0.0333333
7.18042 -1.84961 -275.187 -1.54332 -20.2634 1.14573 9.09285 -9.09831 1.28517 12.7417 -42.6693 -9.7522 7.45058e-06 -44.428 -2.38419e-05 -1.37406 54.3728 1.08094e-05 -1.04308e-05 -43.2252 9.53674e-05 -55.0269 -14.2072 -67.3645 -8.69734 -8.23217 0.235534 1.01025 -34.5888 0.775175 -1.49012e-06 -45.341 2.38419e-05 -6.02728 54.7486 1.29435e-06 7.45058e-07 -42.4699 0 -4.73978 -45.2366 -5.32058 7.45058e-07 5.29257 -5.29253 1.36112 6.51322 -1.86625 -7.45058e-07 29.0364 -7.15256e-05 -35.3026 1.28066e-05 -1.497 23.9265 1.19209e-05 -4.76837e-05 -32.7814 37.2206 -7.74238 22.3443 1.19209e-05 4.76837e-05 1.15034e-05 5.12264e-06 -58.2024 28.4397 -5.96046e-05 -5.96046e-06 -16.9506 -0.0122102 -34.8925 0.0062 0.0497 0.0339 -45 0 0 0 0.0215 0 0 -45 0 0 0.022 0 0 -45 0 0 0.017 0 0 0 0 -0.0068 0.0873 0.0207 -45 0 0 0 0.0267 0 -80 0 0 0 0.0213 0 -90 0 0 0 0.018 0 0 0 0 -0.0067 0.0922 0.0055 -45 0 0 0 0.0266 0 -80 0 0 0 0.0228 0 -90 0 0 0 0.015 0 0 0 0 -0.0067 0.0925 -0.0113 -45 0 0 0 0.0247 0 -80 0 0 0 0.0221 0 -90 0 0 0 0.018 0 0 0 0 -0.0066 0.0935 -0.0272 -45 0 0 0 0.0163 0 -80 0 0 0 0.0171 0 -90 0 0 0 0.018 0 0 0 0 -7.45058e-07 29.0364 -7.15256e-05 31.7337 -1.70755e-06 1.57189 -22.7866 -5.96046e-06 4.76837e-05 37.4204 39.5927 9.71016 -23.4665 -1.19209e-05 2.38419e-05 1.43214e-05 -6.83019e-06 52.0732 -22.6263 -2.38419e-05 -1.19209e-05 -1.73845 0.0781512 22.693 -0.0062 0.0497 0.0339 45 0 0 0 0.0215 0 0 -45 0 0 0.022 0 0 -45 0 0 0.017 0 0 0 0 0.0068 0.0873 0.0207 45 0 0 0 0.0267 0 80 0 0 0 0.0213 0 90 0 0 0 0.018 0 0 0 0 0.0067 0.0922 0.0055 45 0 0 0 0.0266 0 80 0 0 0 0.0228 0 90 0 0 0 0.015 0 0 0 0 0.0067 0.0925 -0.0113 45 0 0 0 0.0247 0 80 0 0 0 0.0221 0 90 0 0 0 0.018 0 0 0 0 0.0066 0.0935 -0.0272 45 0 0 0 0.0163 0 80 0 0 0 0.0171 0 90 0 0 0 0.018 0 0 0 0 -7.45058e-07 29.0364 -7.15256e-05 4.47818 23.3337 -1.7768 7.45058e-07 20.4381 0 9.80506e-06 -1.28066e-05 1.06722e-07 
7.28269 -1.93876 -275.036 -1.33347 -20.3883 1.38166 9.04249 -9.15442 1.36344 11.9252 -41.6058 -10.8341 -1.49012e-06 -44.4234 3.57628e-05 -0.531464 53.4626 6.36371e-06 -7.45058e-07 -43.2116 -0.000119209 -55.4644 -14.4878 -68.8284 -8.61841 -8.23845 0.262547 0.771123 -34.4351 -0.0888533 -1.49012e-06 -45.2542 4.76837e-05 -5.60738 55.334 4.69072e-06 2.98023e-06 -42.2567 0 -2.68182 -47.138 -3.03283 2.98023e-06 5.32291 -5.32291 1.28985 6.47676 -1.99495 -1.49012e-06 29.0364 0 -35.1877 1.45142e-05 -1.40466 23.8473 1.78814e-05 9.53674e-05 -33.0312 37.5973 -7.72011 22.5006 -1.19209e-05 0 -9.60193e-06 -1.19528e-05 -58.2944 28.3751 -1.19209e-05 -5.96046e-06 -15.5021 -0.0524587 -35.8564 0.0062 0.0497 0.0339 -45 0 0 0 0.0215 0 0 -45 0 0 0.022 0 0 -45 0 0 0.017 0 0 0 0 -0.0068 0.0873 0.0207 -45 0 0 0 0.0267 0 -80 0 0 0 0.0213 0 -90 0 0 0 0.018 0 0 0 0 -0.0067 0.0922 0.0055 -45 0 0 0 0.0266 0 -80 0 0 0 0.0228 0 -90 0 0 0 0.015 0 0 0 0 -0.0067 0.0925 -0.0113 -45 0 0 0 0.0247 0 -80 0 0 0 0.0221 0 -90 0 0 0 0.018 0 0 0 0 -0.0066 0.0935 -0.0272 -45 0 0 0 0.0163 0 -80 0 0 0 0.0171 0 -90 0 0 0 0.018 0 0 0 0 -1.49012e-06 29.0364 0 31.4669 -3.4151e-06 1.47268 -22.746 5.96046e-06 -7.15256e-05 37.3409 40.1169 9.82363 -23.323 1.19209e-05 2.38419e-05 -1.84154e-05 1.70755e-05 51.0608 -22.5682 1.19209e-05 1.19209e-05 -0.72501 0.0752408 19.4433 -0.0062 0.0497 0.0339 45 0 0 0 0.0215 0 0 -45 0 0 0.022 0 0 -45 0 0 0.017 0 0 0 0 0.0068 0.0873 0.0207 45 0 0 0 0.0267 0 80 0 0 0 0.0213 0 90 0 0 0 0.018 0 0 0 0 0.0067 0.0922 0.0055 45 0 0 0 0.0266 0 80 0 0 0 0.0228 0 90 0 0 0 0.015 0 0 0 0 0.0067 0.0925 -0.0113 45 0 0 0 0.0247 0 80 0 0 0 0.0221 0 90 0 0 0 0.018 0 0 0 0 0.0066 0.0935 -0.0272 45 0 0 0 0.0163 0 80 0 0 0 0.0171 0 90 0 0 0 0.018 0 0 0 0 -1.49012e-06 29.0364 0 4.34197 23.5301 -1.73624 -7.45058e-07 20.5023 0 1.05788e-05 -1.36604e-05 -1.60083e-07 
7.28269 -1.93876 -275.036 -1.33347 -20.3883 1.38166 9.04249 -9.15442 1.36344 11.9252 -41.6058 -10.8341 -1.49012e-06 -44.4234 3.57628e-05 -0.531464 53.4626 6.36371e-06 -7.45058e-07 -43.2116 -0.000119209 -55.4644 -14.4878 -68.8284 -8.61841 -8.23845 0.262547 0.771123 -34.4351 -0.0888533 -1.49012e-06 -45.2542 4.76837e-05 -5.60738 55.334 4.69072e-06 2.98023e-06 -42.2567 0 -2.68182 -47.138 -3.03283 2.98023e-06 5.32291 -5.32291 1.28985 6.47676 -1.99495 -1.49012e-06 29.0364 0 -35.1877 1.45142e-05 -1.40466 23.8473 1.78814e-05 9.53674e-05 -33.0312 37.5973 -7.72011 22.5006 -1.19209e-05 0 -9.60193e-06 -1.19528e-05 -58.2944 28.3751 -1.19209e-05 -5.96046e-06 -15.5021 -0.0524587 -35.8564 0.0062 0.0497 0.0339 -45 0 0 0 0.0215 0 0 -45 0 0 0.022 0 0 -45 0 0 0.017 0 0 0 0 -0.0068 0.0873 0.0207 -45 0 0 0 0.0267 0 -80 0 0 0 0.0213 0 -90 0 0 0 0.018 0 0 0 0 -0.0067 0.0922 0.0055 -45 0 0 0 0.0266 0 -80 0 0 0 0.0228 0 -90 0 0 0 0.015 0 0 0 0 -0.0067 0.0925 -0.0113 -45 0 0 0 0.0247 0 -80 0 0 0 0.0221 0 -90 0 0 0 0.018 0 0 0 0 -0.0066 0.0935 -0.0272 -45 0 0 0 0.0163 0 -80 0 0 0 0.0171 0 -90 0 0 0 0.018 0 0 0 0 -1.49012e-06 29.0364 0 31.4669 -3.4151e-06 1.47268 -22.746 5.96046e-06 -7.15256e-05 37.3409 40.1169 9.82363 -23.323 1.19209e-05 2.38419e-05 -1.84154e-05 1.70755e-05 51.0608 -22.5682 1.19209e-05 1.19209e-05 -0.72501 0.0752408 19.4433 -0.0062 0.0497 0.0339 45 0 0 0 0.0215 0 0 -45 0 0 0.022 0 0 -45 0 0 0.017 0 0 0 0 0.0068 0.0873 0.0207 45 0 0 0 0.0267 0 80 0 0 0 0.0213 0 90 0 0 0 0.018 0 0 0 0 0.0067 0.0922 0.0055 45 0 0 0 0.0266 0 80 0 0 0 0.0228 0 90 0 0 0 0.015 0 0 0 0 0.0067 0.0925 -0.0113 45 0 0 0 0.0247 0 80 0 0 0 0.0221 0 90 0 0 0 0.018 0 0 0 0 0.0066 0.0935 -0.0272 45 0 0 0 0.0163 0 80 0 0 0 0.0171 0 90 0 0 0 0.018 0 0 0 0 -1.49012e-06 29.0364 0 4.34197 23.5301 -1.73624 -7.45058e-07 20.5023 0 1.05788e-05 -1.36604e-05 -1.60083e-07 
7.28269 -1.93876 -275.036 -1.33347 -20.3883 1.38166 9.04249 -9.15442 1.36344 11.9252 -41.6058 -10.8341 -1.49012e-06 -44.4234 3.57628e-05 -0.531464 53.4626 6.36371e-06 -7.45058e-07 -43.2116 -0.000119209 -55.4644 -14.4878 -68.8284 -8.61841 -8.23845 0.262547 0.771123 -34.4351 -0.0888533 -1.49012e-06 -45.2542 4.76837e-05 -5.60738 55.334 4.69072e-06 2.98023e-06 -42.2567 0 -2.68182 -47.138 -3.03283 2.98023e-06 5.32291 -5.32291 1.28985 6.47676 -1.99495 -1.49012e-06 29.0364 0 -35.1877 1.45142e-05 -1.40466 23.8473 1.78814e-05 9.53674e-05 -33.0312 37.5973 -7.72011 22.5006 -1.19209e-05 0 -9.60193e-06 -1.19528e-05 -58.2944 28.3751 -1.19209e-05 -5.96046e-06 -15.5021 -0.0524587 -35.8564 0.0062 0.0497 0.0339 -45 0 0 0 0.0215 0 0 -45 0 0 0.022 0 0 -45 0 0 0.017 0 0 0 0 -0.0068 0.0873 0.0207 -45 0 0 0 0.0267 0 -80 0 0 0 0.0213 0 -90 0 0 0 0.018 0 0 0 0 -0.0067 0.0922 0.0055 -45 0 0 0 0.0266 0 -80 0 0 0 0.0228 0 -90 0 0 0 0.015 0 0 0 0 -0.0067 0.0925 -0.0113 -45 0 0 0 0.0247 0 -80 0 0 0 0.0221 0 -90 0 0 0 0.018 0 0 0 0 -0.0066 0.0935 -0.0272 -45 0 0 0 0.0163 0 -80 0 0 0 0.0171 0 -90 0 0 0 0.018 0 0 0 0 -1.49012e-06 29.0364 0 31.4669 -3.4151e-06 1.47268 -22.746 5.96046e-06 -7.15256e-05 37.3409 40.1169 9.82363 -23.323 1.19209e-05 2.38419e-05 -1.84154e-05 1.70755e-05 51.0608 -22.5682 1.19209e-05 1.19209e-05 -0.72501 0.0752408 19.4433 -0.0062 0.0497 0.0339 45 0 0 0 0.0215 0 0 -45 0 0 0.022 0 0 -45 0 0 0.017 0 0 0 0 0.0068 0.0873 0.0207 45 0 0 0 0.0267 0 80 0 0 0 0.0213 0 90 0 0 0 0.018 0 0 0 0 0.0067 0.0922 0.0055 45 0 0 0 0.0266 0 80 0 0 0 0.0228 0 90 0 0 0 0.015 0 0 0 0 0.0067 0.0925 -0.0113 45 0 0 0 0.0247 0 80 0 0 0 0.0221 0 90 0 0 0 0.018 0 0 0 0 0.0066 0.0935 -0.0272 45 0 0 0 0.0163 0 80 0 0 0 0.0171 0 90 0 0 0 0.018 0 0 0 0 -1.49012e-06 29.0364 0 4.34197 23.5301 -1.73624 -7.45058e-07 20.5023 0 1.05788e-05 -1.36604e-05 -1.60083e-07 
7.44427 -1.94427 -274.872 -1.06528 -20.6177 1.73133 9.01146 -9.18876 1.40829 10.9767 -41.3412 -11.5607 -3.72529e-06 -44.4209 2.38419e-05 -0.965471 55.3782 1.40879e-05 0 -43.0476 -7.15256e-05 -55.5878 -15.7099 -69.5448 -8.54724 -8.24156 0.264311 -0.0422222 -34.0452 -1.99572 1.39698e-06 -45.0962 -2.38419e-05 -4.18585 55.4348 2.82161e-06 1.49012e-06 -42.3457 2.38419e-05 -2.32989 -47.7497 -2.63848 -1.49012e-06 5.33971 -5.33972 1.29187 6.46519 -2.22448 -1.49012e-06 29.0364 2.38419e-05 -35.317 1.62217e-05 -1.30927 23.8254 1.19209e-05 -4.76837e-05 -33.2597 37.7085 -7.62531 22.5158 3.57628e-05 9.53674e-05 -4.5308e-06 -6.83019e-06 -58.1823 28.4296 2.38419e-05 -1.78814e-05 -15.1658 -0.0506313 -36.2355 0.0062 0.0497 0.0339 -45 0 0 0 0.0215 0 0 -45 0 0 0.022 0 0 -45 0 0 0.017 0 0 0 0 -0.0068 0.0873 0.0207 -45 0 0 0 0.0267 0 -80 0 0 0 0.0213 0 -90 0 0 0 0.018 0 0 0 0 -0.0067 0.0922 0.0055 -45 0 0 0 0.0266 0 -80 0 0 0 0.0228 0 -90 0 0 0 0.015 0 0 0 0 -0.0067 0.0925 -0.0113 -45 0 0 0 0.0247 0 -80 0 0 0 0.0221 0 -90 0 0 0 0.018 0 0 0 0 -0.0066 0.0935 -0.0272 -45 0 0 0 0.0163 0 -80 0 0 0 0.0171 0 -90 0 0 0 0.018 0 0 0 0 -1.49012e-06 29.0364 2.38419e-05 31.1983 -4.26887e-06 1.3718 -22.7394 1.78814e-05 -4.76837e-05 37.4453 40.1966 9.7408 -23.2271 3.57628e-05 2.38419e-05 2.57199e-05 -1.02453e-05 50.3187 -22.5395 -1.19209e-05 0 -0.679791 0.0582214 19.4753 -0.0062 0.0497 0.0339 45 0 0 0 0.0215 0 0 -45 0 0 0.022 0 0 -45 0 0 0.017 0 0 0 0 0.0068 0.0873 0.0207 45 0 0 0 0.0267 0 80 0 0 0 0.0213 0 90 0 0 0 0.018 0 0 0 0 0.0067 0.0922 0.0055 45 0 0 0 0.0266 0 80 0 0 0 0.0228 0 90 0 0 0 0.015 0 0 0 0 0.0067 0.0925 -0.0113 45 0 0 0 0.0247 0 80 0 0 0 0.0221 0 90 0 0 0 0.018 0 0 0 0 0.0066 0.0935 -0.0272 45 0 0 0 0.0163 0 80 0 0 0 0.0171 0 90 0 0 0 0.018 0 0 0 0 -1.49012e-06 29.0364 2.38419e-05 4.10136 23.7134 -1.65177 -1.49012e-06 20.5458 0 9.32481e-06 -1.10991e-05 -1.06722e-07 
